<?xml version="1.0" encoding="UTF-8"?>
<svg id="a" data-name="Layer 1" xmlns="http://www.w3.org/2000/svg" viewBox="0 0 1046.4 917.6">
  <defs>
    <style>
      .b {
        fill: #e6eff1;
      }

      .c {
        fill: #fefefe;
      }

      .d {
        fill: #98b6cc;
      }

      .e {
        fill: #333d45;
      }

      .f {
        fill: #6f7d87;
      }

      .g {
        fill: #769ab2;
      }

      .h {
        stroke: #f2f7f8;
      }

      .h, .i, .j, .k, .l, .m, .n, .o, .p {
        fill: none;
        stroke-width: 2px;
      }

      .i {
        stroke: #b7bec3;
      }

      .j {
        stroke: #8d969b;
      }

      .k {
        stroke: #667a89;
      }

      .l {
        stroke: #999ea2;
      }

      .m {
        stroke: #556c7c;
      }

      .n {
        stroke: #aec5d2;
      }

      .o {
        stroke: #bfd3df;
      }

      .p {
        stroke: #cbdae5;
      }
    </style>
  </defs>
  <g>
    <path class="h" d="m983,574.4c-3-2.9-6.4-4.8-10.2-5.5-2.2-.4-4.6-.1-7.3.9-8.7,3.5-17.1,7.7-25.1,12.6-1.4.9-2.2.5-2.4-1" vector-effect="non-scaling-stroke"/>
    <path class="l" d="m938.5,581.4c20.3-74.5,21.2-148.9,2.6-223.2-2.2-8.8-4.7-17.7-7.6-26.4-20.6-63.8-53.5-119.6-98.6-167.4-49.1-52.1-107.9-91.6-176.3-118.7-46.8-18.5-95.2-29.3-145.2-32.5-10.7-.7-19.8-1-27.4-1.1-10.9-.1-22.6.3-35.1,1.2-24.6,1.8-46.3,4.2-65.3,7.2-3,.5-5.8,1.9-8.3,4.1-.3.3-.5.7-.7,1.1-.7,2.1-1.7,2.1-3.1,0-1.3-2-4-4.5-8.1-7.4-14.3-10.2-30.2-15.9-47.9-17.1-6.2-.4-12.5-.4-18.7,0-6.5.4-11.7.9-15.6,1.5-5.3.8-10.3,2.2-15.2,4.1-18.9,7.4-34.8,19.1-47.8,35.1-6.6,8.2-12.7,16.7-18.3,25.7-4.5,7.1-7.5,11.4-9.2,12.8-1.9,1.6-3.9,3.2-6,4.6-17.8,11.9-34.8,24.7-51.1,38.6-26.8,22.9-49,49.6-66.6,80.1-23,39.7-39.4,82-49.2,126.8-3.5,16-7.5,38.1-12,66.3-5.2,32.5-7.4,63.9-6.7,94.2.2,9.3.8,18.4,1.6,27.4,5.4,54.7,20.9,106.2,46.6,154.6,4.2,7.9,8.8,15.8,13.8,23.7,41.5,65.6,95.6,117.2,162.3,155,77.8,44,162.4,65.6,253.9,64.7,60.7-.6,119.5-11.9,176.5-33.8,8.1-3.1,16.5-6.7,25.3-10.7,23-10.4,45.2-22,66.6-34.7,1.4-.9,3-1.4,4.7-1.5,33.2-2.8,65.6-8.2,97.4-16.2,67.8-17,132.6-43,194.5-77.9.6-.3,1-1,1-1.6v-43.1s-.4-.7-.9-.4c-17.3,10.5-34.9,20.2-52.7,29.3-52.6,26.8-108.1,44.6-166.5,53.2-.5,0-.9,0-1.2-.4-1.4-1.4-1.3-2.7.3-4,23.1-18.2,36.9-29.5,41.6-33.7,2.7-2.5,5.3-4.6,7.8-6.2,2.1-1.4,4.7-2.5,7.9-3.1,55.6-10.8,109.7-26.8,162.3-48,.4-.2,1.4-.9,1.4-.9v-17.9s-.8-.5-1.1-.5c0,0-.1,0-.2,0-21,7-41.6,14.9-61.9,23.6-19.3,8.3-38.8,16.3-58.5,24-.2,0-.4.1-.6.1-.9,0-.9-.3-.1-.8,26-16.1,51.3-33.1,75.8-51.3,17.9-13.2,33-25.3,45.4-36.5.3-.3,1.1-1.1,1.1-1.1v-19.2s-.7-.6-1.1-.3c-18.4,11.4-36.5,23-54.2,34.6-22.8,15-45.8,29.8-68.9,44.4-.4.2-.4.2-.1-.1,38.1-39.3,79.1-75.1,123-107.4.6-.4,1.4-1.8,1.4-1.8v-45.8c0-.6-.2-.7-.7-.4l-61.2,47.8" vector-effect="non-scaling-stroke"/>
    <path class="j" d="m937.9,581.4c-.6,1.8-1.3,2.9-2.1,3.4-4.7,2.7-9.3,5.3-14,8-15,8.6-30.8,15.3-47.4,20" vector-effect="non-scaling-stroke"/>
    <path class="k" d="m874.5,612.8c13.5-29.2,22.3-59.6,26.3-91.2,1.2-9,2.1-18.1,2.9-27.4,1.6-18.7,1.5-37.4-.1-56.1" vector-effect="non-scaling-stroke"/>
    <path class="j" d="m903.6,438.1c-1.3-24.5-5.4-49.4-12.6-74.7-16.3-57.6-43.6-108.6-81.9-153-5.8-6.7-12-13.4-18.8-20.1-13.5-13.4-28.2-26.4-44.2-39.2-26.3-21-54.4-38.4-84.2-52.1-8.9-4.1-17.3-7.7-25.3-10.8-18.7-7.4-38-13-57.9-16.8-2.4-.4-6.3-1.1-11.9-1.9-4-.6-7.9-1.2-11.9-2-.7-.1-.9.1-.5.7,4.1,6.9,7.9,14.1,11.4,21.4,2.2,4.7,5.9,8.5,11.1,11.4" vector-effect="non-scaling-stroke"/>
    <path class="k" d="m577,101.2c12.8,2.6,26.3,7.3,40.7,14.1,31.5,15,58.9,33.9,82.2,56.8" vector-effect="non-scaling-stroke"/>
    <path class="j" d="m699.9,172.2c7.7,8.4,14.6,17.2,20.8,26.5" vector-effect="non-scaling-stroke"/>
    <path class="k" d="m720.7,198.7c6.9,10.7,12.1,19.8,15.5,27.4,12.2,27.6,15.7,56.9,10.5,87.9-2,11.7-5.3,22.9-9.9,33.8-4.7,10.9-10.9,20.6-18.8,29.2-7.1,7.7-14.4,13-22,16-10.6,4.2-21.3,4.4-32.1.5-7.3-2.6-15-7.5-23.1-14.6-11-9.7-19.4-20.8-25.1-33.3-4.7-10.3-8.8-20.8-12.3-31.6-4.3-13.1-8.8-23.2-13.3-30.5-6.1-9.7-14.2-16.4-24.4-19.9-11.1-3.9-23-4.9-35.6-3.2-33.8,4.6-59.3,21.3-76.6,50.4-4.1,6.9-7.4,14-9.9,21.5" vector-effect="non-scaling-stroke"/>
    <path class="j" d="m443.6,332.2c-4.9,13.5-7.6,26.5-8.1,38.9-1.1,31.2,4.9,61,18.3,89.4,3.5,7.5,8,15.6,13.4,24,25.1,39.5,57.6,72,97.4,97.5,35.5,22.7,73.5,39.7,114,51,25.9,7.3,52.3,12.6,79,15.9,17.2,2.1,33.8,2.3,49.9.6,17.4-1.9,35.2-5,53.4-9.3,10.1-2.4,18.9-4.9,26.4-7.6,24.5-8.6,47.1-20.9,67.7-36.8,7.8-6,11.8-9.1,11.9-9.1,5.5-4.1,10.9-8.2,16.2-12.3" vector-effect="non-scaling-stroke"/>
    <path class="o" d="m903.6,438.1c-1,.2-1.4,0-1.4-.8,0-.6,0-1,0-1.1-9.1-62.2-32.3-118.5-69.5-169-18.2-24.6-39-47.5-62.5-68.5-50.9-45.6-109.2-77.3-174.9-95.3-6.3-1.7-12.5-2.4-18.3-2.1" vector-effect="non-scaling-stroke"/>
    <path class="o" d="m874.5,612.8c-46.3,15.5-93.3,19.7-141.2,12.5-8.5-1.3-17.4-3.1-26.9-5.4-21.2-5.2-41.9-12-62.2-20.2-23.2-9.4-42.9-18.8-59.1-28-35.9-20.5-66.8-48.3-92.8-83.1-12.8-17.1-23.4-35.5-31.9-55-8.4-19.3-13.9-39-16.6-59.1-1.8-13.6-1.9-27.7-.3-42.2" vector-effect="non-scaling-stroke"/>
    <path class="o" d="m720.7,198.7c28.9,23,54.4,46.9,76.3,71.8,24.8,28.1,45.4,60.2,61.7,96.4,6.7,14.8,12.5,31.1,17.4,48.9,13.4,48.4,12.8,96.3-2.1,143.7-.4,1.4-.6,2.6-.5,3.5,0,.5.2.6.5,0,2.1-3.6,3.8-7,5.1-10.2,10.8-27.5,16.3-56.2,16.3-86.2,0-16.3-.9-30.2-2.8-41.9-5.9-36.2-18.2-70.7-36.7-103.6-4.3-7.7-9.2-15.4-14.6-23.3-24.3-35.5-53.6-66.3-87.7-92.6-9.9-7.6-17.3-13-22.1-16.3-9.9-6.7-20.4-12.3-31.6-16.8" vector-effect="non-scaling-stroke"/>
    <path class="l" d="m124.4,500.9c11,12.5,20.1,26.8,27.2,43,1.7,3.8,4.1,8.4,7.3,13.7,1.1,1.8,2.2,3,3.2,3.6,2,1,3.8.4,5.4-1.8,1.5-2.1,5.3-8.1,11.3-17.9,9-14.9,21.5-25.1,37.4-30.5,5.9-2,11.4-3.1,16.5-3.1,5.9,0,11.5,1,16.8,3.3,6.5,2.8,12.1,7.2,17,13.4,4.5,5.7,7.9,12.3,10.2,19.7,4,12.8,6.6,25.1,7.9,36.8,1.5,13.3,3.8,26.4,6.9,39.3,6.7,28.1,20.3,52.4,40.7,72.9,4,4,7.9,7.8,11.7,11.4,1.5,1.4,2,1.1,1.5-.9-2.3-9.7-4.2-19.6-5.5-29.5-1-7-1.3-12.6-1.1-16.8.4-6,1.6-11.6,3.7-16.6,1.5-3.5,3.4-3.8,5.8-.7,3.2,4.1,6.3,8.3,9.4,12.4,0,0,2.5,3.1,7.3,9.2,9,11.4,15.4,24.3,19,38.6,2.6,10.2,5.3,18.6,8.2,25.3,3.9,9.1,9.5,17.4,16.8,24.7,5.9,6,11.4,9.9,16.6,11.8,7,2.6,14.1,2.5,21.5-.4,2.9-1.1,5.9-2.8,9-5.1,3.2-2.4,5.8-4.7,7.8-7,4-4.7,7.6-8.1,10.8-10.1,4.6-3,9.7-4.3,15.1-3.9,3.2.2,8,1.7,14.4,4.3,11.6,4.8,22.9,10.3,33.8,16.4,13.1,7.3,27.2,12,42.1,14,1.5.2,2.9-.1,4.2-.9,4.4-2.9,8.3-6.3,11.8-10.2,5.8-6.5,11.8-12.8,18-18.8,5.5-5.3,12.1-6.6,20-3.7,37.5,13.5,75.4,25.5,113.8,36.1,1,.3,2.2.1,3.1-.4,39.9-24.2,77-52.5,111.3-84.9,1.2-1.1,1.9-2.1,2.3-3,1-2.6-.4-3.6-4.2-3-12,1.8-26.9,3-44.8,3.7-12.7.5-21.8.7-27.5.8-23.1.2-45.9-1.9-68.6-6.3-4.1-.8-9.5-2-16.1-3.7-5.3-1.4-10.7-2.7-16-4-9.8-2.4-17.8-4.6-23.9-6.4-25.7-7.8-51.4-17.1-77.2-28-37.7-15.9-72-36.7-102.9-62.4-16-13.3-30.5-28-43.6-44.1-25-30.8-42-65.3-51.1-103.5-2.3-9.8-4-18.8-5.2-27-2.3-16.7-2.4-33.1-.1-49.1,2.1-15.4,5.7-31.3,10.7-47.6,3-9.9,6.4-18.4,10-25.5,6.4-12.5,14-23.5,23-33.1,15.3-16.4,34.3-28,57.1-34.8,13-3.9,26.3-6.2,39.9-6.8,17.2-.8,34,1.6,50.2,7.2,23.9,8.2,42.9,22.4,56.9,42.7,2.8,4,5.8,8,9,12.1,3.7,4.8,6.7,9.4,8.9,13.8,3.7,7.6,8.2,18.1,13.3,31.8,2.7,7,6.2,13.5,10.7,19.4,2.4,3.2,5.3,5.6,8.6,7.3,3.6,1.8,7.1,2.4,10.7,1.8,6.2-1.1,9.8-5.4,10.9-13,5.9-40.9-2.1-77.9-24.1-110.8-4.4-6.6-8.9-12.1-13.4-16.5-5.1-5-10.7-9.4-16.9-13.2-18.7-11.5-38.2-21.5-58.6-29.9-12.7-5.3-24.9-11.6-36.4-19.2-11.5-7.5-20.2-17.1-25.9-28.7-2.4-4.9-5.8-8.5-9.9-10.9-3.2-1.8-7.8-2.7-13.7-2.8-17.4,0-34,3.9-49.7,11.9-18.6,9.6-34.9,19-48.7,28.3-6.1,4.1-12.5,6.6-19.1,7.5-5.9.8-11.6,0-17.1-2.6-8-3.7-13.8-9.6-17.2-17.7-1.8-4.1-3.1-11-4-20.6-.7-7-1.2-14-1.6-21-.2-3.9-.7-7.8-1.4-11.7-2.2-12.1-9.3-19.7-21.1-22.8-7.3-2-14.2-2.5-20.6-1.5-30.8,4.5-54,20.4-69.7,47.5-10.1,17.5-19.3,32.3-27.7,44.5-11.9,17.2-26,34.1-42.5,50.7-13.3,13.4-23.4,24.1-30.2,32-9.4,10.9-17.1,23.5-23,38-.5,1.2-.8,2.4-1,3.8-.2,1.3-.4,2.6-.6,3.9-.3,1.8-.9,3.7-1.8,5.7-9.9,21.8-17.5,42.7-22.7,62.7-7.8,29.7-12.4,47.3-13.9,52.8-7.7,28.2-13,56.2-16.1,83.9-1.3,11.4-.9,22.5.9,33.4.2,1.4.7,1.5,1.4.2,3.3-6.1,7.6-11.3,12.9-15.6,2.3-1.9,4.6-3.3,6.8-4,2.5-.9,5.2-1.3,8-1.3,14.2,0,26.3,5.1,36.2,15.1.6.6,1.2,1.2,1.7,1.6.8.7,1.4,1.2,1.7,1.5" vector-effect="non-scaling-stroke"/>
    <path class="j" d="m390.7,67.5l-1.5,18.7c0,.7.2.9.8.5,8.9-6,17.9-11.9,26.9-17.7,4.6-3,11.1-6,19.5-9.2.4-.1.6-.5.5-.8,0,0,0,0,0,0-.3-.5-1-.8-2.1-.6-14.1,1.8-22.7,2.8-25.8,3.2-6,.8-11.9,2.5-17.7,5.1-.3.2-.6.5-.6.9" vector-effect="non-scaling-stroke"/>
    <path class="m" d="m87.7,599.3c10.3,41.1,28.9,79.2,55.9,114.2,49.2,64,111,109.2,185.5,135.7,8.5,3,17.2,5.8,26.2,8.3,66.2,18.3,133.1,21.2,200.7,8.5,8.5-1.6,17.5-3.6,26.8-6.1,29.1-7.6,57.9-17.3,86.5-29.1,13.3-5.5,25.7-11.9,37.1-19.1" vector-effect="non-scaling-stroke"/>
    <path class="j" d="m706.4,811.6c5-1.5,9.8-3.7,14.3-6.5,2.9-1.8,2.9-3.6-.2-5.5-2.2-1.3-4.5-2.4-7-3.2-17.7-5.8-35.2-12.1-52.6-18.7,0,0-2.4-1-7.1-2.9-4.1-1.7-8.4-3.1-12.7-4.2-9.7-2.6-17.1.3-22,8.6-1.3,2.3-2.7,4.6-4,6.9-2.3,4.1-5.4,7.4-9.1,9.9-3.4,2.4-7.6,3.7-12.3,4.2-5.6.5-11.1,0-16.6-1.7-5.6-1.7-11-3.6-16.4-5.9-10.3-4.4-20.6-8.6-31-12.7-9.8-3.9-19.9-6.7-30.2-8.7-4.4-.8-7.8-.6-10.2.5-4.3,2-8.9,5.2-13.8,9.6-5.1,4.5-8.3,7.2-9.7,7.9-3.7,2-7.8,3.3-12.3,3.7-8.7.8-17-.1-24.7-2.8-10.4-3.6-20.2-8.5-29.4-14.5-9-5.9-17.9-11.8-26.9-17.8-17.5-11.6-34.3-24.2-50.2-37.8-6.9-5.9-13.1-11.8-18.5-17.7-5.6-6.1-10.5-13-14.9-20.7-11.9-21.2-19.9-44-23.8-68.4-2.3-14.3-4.7-28.7-7.1-43-.7-3.8-1.8-7.4-3.5-10.8-1.8-3.6-4.1-6.4-7.1-8.6-8.1-5.8-16.8-5.3-26.1,1.4-2.7,2-4.7,3.8-5.9,5.4-2.3,3.1-4.9,7.7-8,13.9-3.5,7-7.6,13.5-12.3,19.6-3.6,4.6-6.8,7.8-9.5,9.4-4.3,2.5-9,3.1-14,1.8-3-.8-6-2.4-9.1-5-3-2.5-5.5-5.1-7.4-7.6-4.4-5.9-10.1-14.6-17.2-26.1-5.5-8.9-11.8-17.3-18.9-25.1-2.8-3.1-6.2-6.1-10.1-9-3.5-2.6-6.9-4.2-10.3-4.8-7.5-1.3-13.2,1-17.1,6.8-2.3,3.4-3.6,8.1-4,14.2-.4,5.8-.1,11.1.7,15.8,1.8,10.6,5,23.3,9.7,38.2" vector-effect="non-scaling-stroke"/>
    <path class="n" d="m706.4,811.6c-11.5-4.4-25.8-10.3-42.8-17.7-4.3-1.9-9-3-14.2-3.4-2-.2-3.7.1-5,.9-1.6,1-2.8,2.4-3.5,4.1-.7,1.8-2.2,7-4.5,15.5-1.4,5.3-4.8,9.6-10,13-3.2,2-7.2,3.4-12,4.1-2.8.4-6.2.4-10.1.1-4.1-.3-7.5-.8-10-1.4-9.3-2-19-4.8-29.2-8.4-7.7-2.7-16.3-6-25.7-9.8-8.7-3.5-17.2-7.3-25.6-11.4-3.2-1.5-5.9-2.5-8.3-3-2.2-.4-4.1,0-5.9,1-1,.6-2.3,2-4,4.1-1.8,2.4-4.2,5.4-7.2,9-12,14.6-27,18.7-45.2,12.4-20-7-37.6-15.8-52.5-26.5-17-12.1-33.7-24.4-50.2-37.1-20.6-15.8-36.8-29-48.7-39.6-23.5-21.1-39.8-46.8-49.1-77.1-3.4-11.2-6.3-22.6-8.5-34.2,0,0-.1-.8-.3-2.3-.4-2.9-2-4.1-4.8-3.4-1.7.4-3,1.4-3.9,2.9-6.3,10.8-14.1,20-23.4,27.7-.3.3-.5.7-.5,1.1.9,11.1,3.5,21.7,7.8,32,6.8,16.3,15.6,31.3,26.4,45,4.5,5.8,10.5,12.7,18,20.8,11.3,12.3,23.4,23.8,36.2,34.5,16.6,13.8,34.5,25.6,53.8,35.3.2.1.4.3.6.5.9,1,.6,1.2-1.1.5-8.8-3.6-17.2-7.8-25.4-12.6-18.1-10.6-35.6-22.3-52.3-35.1-24.6-18.7-46.6-40.2-65.7-64.5-6.4-8.1-12.1-16.8-17-26-4.2-7.9-7.1-16.2-8.8-25-.1-.7-.7-1.3-1.4-1.4-6.9-1.3-13.4-3.9-19.4-7.9-7.2-4.8-13.9-11.4-20.1-19.8-8.1-10.9-15-22.5-20.8-34.8-.2-.4-.3-.4-.2,0,.4,2.1.7,4.2,1,6.3.4,2.8.8,5.1,1.3,7,5.1,19.7,13.1,39.4,23.9,59.1,25,45.4,56.2,84.6,93.7,117.6,16.1,14.2,34.2,27.1,54.5,38.9.3.2.6.4.8.6,1.2,1.4,1.1,1.8-.5,1.2-.3-.1-.6-.2-.9-.4-35.2-19.4-67.8-42.4-97.8-69-7.9-7-14.6-13.2-20.2-18.6-28.5-27.5-51.8-59-70-94.4-3.1-6.1-5.6-12.4-7.5-18.9-.1-.5-1-1.9-2.4-4" vector-effect="non-scaling-stroke"/>
    <path class="i" d="m205.9,498.9c1.8.5,3,0,3.8-1.4.4-.7.6-1.9.6-3.5.3-23.1,3.1-46.8,8.5-71.1,9.9-45.1,28.3-85.8,55.2-122.2,11.7-15.8,25-30.1,40-42.8,31.8-27.1,67.2-48.2,106.2-63.2,2.6-1,4.8-2.1,6.6-3.2,1.7-1.1,1.6-1.4-.4-.9-5.4,1.3-10.8,3-16,4.9-31.1,11.6-60.7,26.3-88.8,44-31,19.5-59.2,44.3-84.6,74.2-11.8,13.9-21.9,27-30.3,39.4-5.8,8.5-10.3,16.5-13.6,23.9-3.8,8.7-6.8,17.8-9.2,27.4-6.4,26.7-3.4,52,9.2,75.8,2.5,4.7,5.4,9.9,8.7,15.7.9,1.5,2.1,2.5,3.8,3" vector-effect="non-scaling-stroke"/>
    <path class="i" d="m418.6,610.4c13.9,13.7,27.4,25.4,40.5,35.2,35.4,26.3,73.9,47.1,115.3,62.4,31.6,11.7,64.3,18.6,98,20.8,10.4.7,20.9.5,31.3-.5,40.6-3.9,79.8-13.3,117.8-28.1,7.2-2.8,14-6,20.4-9.5,1-.6,1-.7-.2-.5-4.8,1.1-9.5,2.2-14.1,3.3-5.3,1.3-10,2.3-14.2,2.9-27.7,4.3-59.6,7.4-95.6,9.2-34.5,1.7-68.4-1.8-101.7-10.4-22.5-5.9-43.8-12.1-63.6-18.8-16.7-5.6-32.9-12.8-48.4-21.7-7-4-14.8-8.9-23.2-14.8-29.7-20.7-55.9-43.7-78.7-68.9-19.9-22-34.7-47.6-44.4-76.6-.4-1.1-1.3-2-2.4-2.4-1.4-.5-2.2,0-2.5,1.6-.1.6,0,1.5,0,2.6,2.4,16.5,7,31.8,13.8,45.9,8.9,18.3,20.6,35.4,35,51.2,3.5,3.8,9.1,9.6,16.9,17.2" vector-effect="non-scaling-stroke"/>
    <path class="p" d="m718.4,480.9c0-20.7-16.8-37.5-37.5-37.5-20.7,0-37.5,16.8-37.5,37.5h0c0,20.7,16.8,37.5,37.5,37.5,20.7,0,37.5-16.8,37.5-37.5" vector-effect="non-scaling-stroke"/>
  </g>
  <path class="e" d="m937.9,581.4c-.6,1.8-1.3,2.9-2.1,3.4-4.7,2.7-9.3,5.3-14,8-15,8.6-30.8,15.3-47.4,20,13.5-29.2,22.3-59.6,26.3-91.2,1.2-9,2.1-18.1,2.9-27.4,1.6-18.7,1.5-37.4-.1-56.1-1.3-24.5-5.4-49.4-12.6-74.7-16.3-57.6-43.6-108.6-81.9-153-5.8-6.7-12-13.4-18.8-20.1-13.5-13.4-28.2-26.4-44.2-39.2-26.3-21-54.4-38.4-84.2-52.1-8.9-4.1-17.3-7.7-25.3-10.8-18.7-7.4-38-13-57.9-16.8-2.4-.4-6.3-1.1-11.9-1.9-4-.6-7.9-1.2-11.9-2-.7-.1-.9.1-.5.7,4.1,6.9,7.9,14.1,11.4,21.4,2.2,4.7,5.9,8.5,11.1,11.4,12.8,2.6,26.3,7.3,40.7,14.1,31.5,15,58.9,33.9,82.2,56.8,7.7,8.4,14.6,17.2,20.8,26.5,6.9,10.7,12.1,19.8,15.5,27.4,12.2,27.6,15.7,56.9,10.5,87.9-2,11.7-5.3,22.9-9.9,33.8-4.7,10.9-10.9,20.6-18.8,29.2-7.1,7.7-14.4,13-22,16-10.6,4.2-21.3,4.4-32.1.5-7.3-2.6-15-7.5-23.1-14.6-11-9.7-19.4-20.8-25.1-33.3-4.7-10.3-8.8-20.8-12.3-31.6-4.3-13.1-8.8-23.2-13.3-30.5-6.1-9.7-14.2-16.4-24.4-19.9-11.1-3.9-23-4.9-35.6-3.2-33.8,4.6-59.3,21.3-76.6,50.4-4.1,6.9-7.4,14-9.9,21.5-4.9,13.5-7.6,26.5-8.1,38.9-1.1,31.2,4.9,61,18.3,89.4,3.5,7.5,8,15.6,13.4,24,25.1,39.5,57.6,72,97.4,97.5,35.5,22.7,73.5,39.7,114,51,25.9,7.3,52.3,12.6,79,15.9,17.2,2.1,33.8,2.3,49.9.6,17.4-1.9,35.2-5,53.4-9.3,10.1-2.4,18.9-4.9,26.4-7.6,24.5-8.6,47.1-20.9,67.7-36.8,7.8-6,11.8-9.1,11.9-9.1,5.5-4.1,10.9-8.2,16.2-12.3l61.2-47.8c.5-.4-.1.4-.1.4v45.8s.5,1.3,0,1.8c-43.9,32.3-84.9,68.1-123,107.4-.3.3-.3.4.1.1,23.1-14.5,46.1-29.3,68.9-44.4,17.8-11.7,35.8-23.2,54.2-34.6.4-.3.6-.1-.2.3v19.2c.8.4.6.8.3,1.1-12.4,11.2-27.5,23.3-45.4,36.5-24.6,18.1-49.9,35.2-75.8,51.3-.8.5-.8.8.1.8.2,0,.4,0,.6-.1,19.6-7.6,39.1-15.6,58.5-24,20.3-8.8,40.9-16.6,61.9-23.6.3,0,.6,0,.6.3,0,0,.6.2.6.2v17.9s-1,.8-1.4.9c-52.5,21.2-106.6,37.2-162.3,48-3.2.6-5.8,1.6-7.9,3.1-2.4,1.7-5,3.7-7.8,6.2-4.7,4.2-18.5,15.5-41.6,33.7-1.6,1.3-1.7,2.6-.3,4,.3.3.7.4,1.2.4,58.4-8.6,114-26.4,166.5-53.2,17.8-9.1,35.4-18.9,52.7-29.3.5-.3.9.4.9.4v43.1s-1,1.3-1.6,1.6c-61.9,34.9-126.7,60.9-194.5,77.9-31.8,8-64.2,13.4-97.4,16.2-1.7.1-3.3.6-4.7,1.5-21.4,12.7-43.5,24.3-66.6,34.7-8.8,4-17.2,7.5-25.3,10.7-57,21.9-115.9,33.2-176.5,33.8-91.5.9-176.1-20.6-253.9-64.7-66.7-37.8-120.8-89.4-162.3-155-5-8-9.6-15.9-13.8-23.7-25.7-48.4-41.3-99.9-46.6-154.6-.9-9-1.4-18.2-1.6-27.4-.7-30.3,1.5-61.7,6.7-94.2,4.5-28.2,8.5-50.3,12-66.3,9.9-44.8,26.3-87.1,49.2-126.8,17.6-30.5,39.8-57.2,66.6-80.1,16.3-13.9,33.3-26.8,51.1-38.6,2.1-1.4,4.1-2.9,6-4.6,1.7-1.4,4.7-5.7,9.2-12.8,5.6-8.9,11.7-17.5,18.3-25.7,13-15.9,28.9-27.6,47.8-35.1,4.8-1.9,9.9-3.3,15.2-4.1,3.8-.6,9-1.1,15.6-1.5,6.2-.4,12.4-.4,18.7,0,17.6,1.1,33.6,6.8,47.9,17.1,4,2.9,6.7,5.4,8.1,7.4,1.4,2.1,2.4,2.1,3.1,0,.1-.5.4-.9.7-1.1,2.5-2.2,5.3-3.6,8.3-4.1,19-3,40.7-5.4,65.3-7.2,12.5-.9,24.2-1.3,35.1-1.2,7.6.1,16.8.5,27.4,1.1,50,3.1,98.4,14,145.2,32.5,68.4,27.1,127.2,66.6,176.3,118.7,45.1,47.8,78,103.6,98.6,167.4,2.8,8.8,5.4,17.6,7.6,26.4,18.6,74.3,17.7,148.7-2.6,223.2ZM124.4,500.9c11,12.5,20.1,26.8,27.2,43,1.7,3.8,4.1,8.4,7.3,13.7,1.1,1.8,2.2,3,3.2,3.6,2,1,3.8.4,5.4-1.8,1.5-2.1,5.3-8.1,11.3-17.9,9-14.9,21.5-25.1,37.4-30.5,5.9-2,11.4-3.1,16.5-3.1,5.9,0,11.5,1,16.8,3.3,6.5,2.8,12.1,7.2,17,13.4,4.5,5.7,7.9,12.3,10.2,19.7,4,12.8,6.6,25.1,7.9,36.8,1.5,13.3,3.8,26.4,6.9,39.3,6.7,28.1,20.3,52.4,40.7,72.9,4,4,7.9,7.8,11.7,11.4,1.5,1.4,2,1.1,1.5-.9-2.3-9.7-4.2-19.6-5.5-29.5-1-7-1.3-12.6-1.1-16.8.4-6,1.6-11.6,3.7-16.6,1.5-3.5,3.4-3.8,5.8-.7,3.2,4.1,6.3,8.3,9.4,12.4,0,0,2.5,3.1,7.3,9.2,9,11.4,15.4,24.3,19,38.6,2.6,10.2,5.3,18.6,8.2,25.3,3.9,9.1,9.5,17.4,16.8,24.7,5.9,6,11.4,9.9,16.6,11.8,7,2.6,14.1,2.5,21.5-.4,2.9-1.1,5.9-2.8,9-5.1,3.2-2.4,5.8-4.7,7.8-7,4-4.7,7.6-8.1,10.8-10.1,4.6-3,9.7-4.3,15.1-3.9,3.2.2,8,1.7,14.4,4.3,11.6,4.8,22.9,10.3,33.8,16.4,13.1,7.3,27.2,12,42.1,14,1.5.2,2.9-.1,4.2-.9,4.4-2.9,8.3-6.3,11.8-10.2,5.8-6.5,11.8-12.8,18-18.8,5.5-5.3,12.1-6.6,20-3.7,37.5,13.5,75.4,25.5,113.8,36.1,1,.3,2.2.1,3.1-.4,39.9-24.2,77-52.5,111.3-84.9,1.2-1.1,1.9-2.1,2.3-3,1-2.6-.4-3.6-4.2-3-12,1.8-26.9,3-44.8,3.7-12.7.5-21.8.7-27.5.8-23.1.2-45.9-1.9-68.6-6.3-4.1-.8-9.5-2-16.1-3.7-5.3-1.4-10.7-2.7-16-4-9.8-2.4-17.8-4.6-23.9-6.4-25.7-7.8-51.4-17.1-77.2-28-37.7-15.9-72-36.7-102.9-62.4-16-13.3-30.5-28-43.6-44.1-25-30.8-42-65.3-51.1-103.5-2.3-9.8-4-18.8-5.2-27-2.3-16.7-2.4-33.1-.1-49.1,2.1-15.4,5.7-31.3,10.7-47.6,3-9.9,6.4-18.4,10-25.5,6.4-12.5,14-23.5,23-33.1,15.3-16.4,34.3-28,57.1-34.8,13-3.9,26.3-6.2,39.9-6.8,17.2-.8,34,1.6,50.2,7.2,23.9,8.2,42.9,22.4,56.9,42.7,2.8,4,5.8,8,9,12.1,3.7,4.8,6.7,9.4,8.9,13.8,3.7,7.6,8.2,18.1,13.3,31.8,2.7,7,6.2,13.5,10.7,19.4,2.4,3.2,5.3,5.6,8.6,7.3,3.6,1.8,7.1,2.4,10.7,1.8,6.2-1.1,9.8-5.4,10.9-13,5.9-40.9-2.1-77.9-24.1-110.8-4.4-6.6-8.9-12.1-13.4-16.5-5.1-5-10.7-9.4-16.9-13.2-18.7-11.5-38.2-21.5-58.6-29.9-12.7-5.3-24.9-11.6-36.4-19.2-11.5-7.5-20.2-17.1-25.9-28.7-2.4-4.9-5.8-8.5-9.9-10.9-3.2-1.8-7.8-2.7-13.7-2.8-17.4,0-34,3.9-49.7,11.9-18.6,9.6-34.9,19-48.7,28.3-6.1,4.1-12.5,6.6-19.1,7.5-5.9.8-11.6,0-17.1-2.6-8-3.7-13.8-9.6-17.2-17.7-1.8-4.1-3.1-11-4-20.6-.7-7-1.2-14-1.6-21-.2-3.9-.7-7.8-1.4-11.7-2.2-12.1-9.3-19.7-21.1-22.8-7.3-2-14.2-2.5-20.6-1.5-30.8,4.5-54,20.4-69.7,47.5-10.1,17.5-19.3,32.3-27.7,44.5-11.9,17.2-26,34.1-42.5,50.7-13.3,13.4-23.4,24.1-30.2,32-9.4,10.9-17.1,23.5-23,38-.5,1.2-.8,2.4-1,3.8-.2,1.3-.4,2.6-.6,3.9-.3,1.8-.9,3.7-1.8,5.7-9.9,21.8-17.5,42.7-22.7,62.7-7.8,29.7-12.4,47.3-13.9,52.8-7.7,28.2-13,56.2-16.1,83.9-1.3,11.4-.9,22.5.9,33.4.2,1.4.7,1.5,1.4.2,3.3-6.1,7.6-11.3,12.9-15.6,2.3-1.9,4.6-3.3,6.8-4,2.5-.9,5.2-1.3,8-1.3,14.2,0,26.3,5.1,36.2,15.1.6.6,1.2,1.2,1.7,1.6.8.7,1.4,1.2,1.7,1.5ZM390.7,67.5l-1.5,18.7c0,.7.2.9.8.5,8.9-6,17.9-11.9,26.9-17.7,4.6-3,11.1-6,19.5-9.2.4-.1.6-.5.5-.8,0,0,0,0,0,0-.3-.5-1-.8-2.1-.6-14.1,1.8-22.7,2.8-25.8,3.2-6,.8-11.9,2.5-17.7,5.1-.3.2-.6.5-.6.9ZM87.7,599.3c10.3,41.1,28.9,79.2,55.9,114.2,49.2,64,111,109.2,185.5,135.7,8.5,3,17.2,5.8,26.2,8.3,66.2,18.3,133.1,21.2,200.7,8.5,8.5-1.6,17.5-3.6,26.8-6.1,29.1-7.6,57.9-17.3,86.5-29.1,13.3-5.5,25.7-11.9,37.1-19.1,5-1.5,9.8-3.7,14.3-6.5,2.9-1.8,2.9-3.6-.2-5.5-2.2-1.3-4.5-2.4-7-3.2-17.7-5.8-35.2-12.1-52.6-18.7,0,0-2.4-1-7.1-2.9-4.1-1.7-8.4-3.1-12.7-4.2-9.7-2.6-17.1.3-22,8.6-1.3,2.3-2.7,4.6-4,6.9-2.3,4.1-5.4,7.4-9.1,9.9-3.4,2.4-7.6,3.7-12.3,4.2-5.6.5-11.1,0-16.6-1.7-5.6-1.7-11-3.6-16.4-5.9-10.3-4.4-20.6-8.6-31-12.7-9.8-3.9-19.9-6.7-30.2-8.7-4.4-.8-7.8-.6-10.2.5-4.3,2-8.9,5.2-13.8,9.6-5.1,4.5-8.3,7.2-9.7,7.9-3.7,2-7.8,3.3-12.3,3.7-8.7.8-17-.1-24.7-2.8-10.4-3.6-20.2-8.5-29.4-14.5-9-5.9-17.9-11.8-26.9-17.8-17.5-11.6-34.3-24.2-50.2-37.8-6.9-5.9-13.1-11.8-18.5-17.7-5.6-6.1-10.5-13-14.9-20.7-11.9-21.2-19.9-44-23.8-68.4-2.3-14.3-4.7-28.7-7.1-43-.7-3.8-1.8-7.4-3.5-10.8-1.8-3.6-4.1-6.4-7.1-8.6-8.1-5.8-16.8-5.3-26.1,1.4-2.7,2-4.7,3.8-5.9,5.4-2.3,3.1-4.9,7.7-8,13.9-3.5,7-7.6,13.5-12.3,19.6-3.6,4.6-6.8,7.8-9.5,9.4-4.3,2.5-9,3.1-14,1.8-3-.8-6-2.4-9.1-5-3-2.5-5.5-5.1-7.4-7.6-4.4-5.9-10.1-14.6-17.2-26.1-5.5-8.9-11.8-17.3-18.9-25.1-2.8-3.1-6.2-6.1-10.1-9-3.5-2.6-6.9-4.2-10.3-4.8-7.5-1.3-13.2,1-17.1,6.8-2.3,3.4-3.6,8.1-4,14.2-.4,5.8-.1,11.1.7,15.8,1.8,10.6,5,23.3,9.7,38.2Z"/>
  <path class="c" d="m122.8,499.4c-.5-.4-1-.9-1.7-1.6-9.9-10-21.9-15-36.2-15.1-2.8,0-5.4.4-8,1.3-2.2.8-4.4,2.1-6.8,4-5.2,4.4-9.5,9.6-12.9,15.6-.7,1.2-1.2,1.2-1.4-.2-1.9-10.9-2.2-22-.9-33.4,3.1-27.7,8.4-55.7,16.1-83.9,1.5-5.5,6.1-23.1,13.9-52.8,5.3-20,12.8-40.9,22.7-62.7.9-1.9,1.5-3.8,1.8-5.7.2-1.3.5-2.6.6-3.9.2-1.4.5-2.7,1-3.8,5.9-14.5,13.5-27.2,23-38,6.9-7.9,17-18.6,30.2-32,16.4-16.5,30.6-33.4,42.5-50.7,8.4-12.2,17.6-27,27.7-44.5,15.6-27.1,38.9-43,69.7-47.5,6.4-.9,13.2-.4,20.6,1.5,11.8,3.2,18.8,10.8,21.1,22.8.7,3.9,1.2,7.8,1.4,11.7.4,7,1,14,1.6,21,.9,9.6,2.3,16.4,4,20.6,3.5,8,9.2,13.9,17.2,17.7,5.5,2.6,11.2,3.4,17.1,2.6,6.6-.9,13-3.4,19.1-7.5,13.8-9.3,30.1-18.7,48.7-28.3,15.7-8,32.2-12,49.7-11.9,5.9,0,10.5.9,13.7,2.8,4.2,2.4,7.5,6,9.9,10.9,5.8,11.6,14.4,21.1,25.9,28.7,11.5,7.5,23.7,13.9,36.4,19.2,20.3,8.4,39.8,18.3,58.6,29.9,6.1,3.8,11.8,8.2,16.9,13.2,4.5,4.4,9,9.9,13.4,16.5,22,32.9,30,69.9,24.1,110.8-1.1,7.6-4.7,11.9-10.9,13-3.6.6-7.1,0-10.7-1.8-3.4-1.7-6.3-4.1-8.6-7.3-4.5-6-8.1-12.4-10.7-19.4-5.2-13.6-9.6-24.2-13.3-31.8-2.2-4.4-5.1-9-8.9-13.8-3.2-4.1-6.2-8.1-9-12.1-14.1-20.3-33.1-34.5-56.9-42.7-16.3-5.6-33-8-50.2-7.2-13.6.6-26.9,2.9-39.9,6.8-22.7,6.8-41.8,18.4-57.1,34.8-8.9,9.6-16.6,20.6-23,33.1-3.7,7.2-7,15.7-10,25.5-5,16.3-8.6,32.2-10.7,47.6-2.2,16-2.2,32.4.1,49.1,1.1,8.2,2.9,17.2,5.2,27,9.1,38.2,26.1,72.7,51.1,103.5,13.1,16.1,27.6,30.8,43.6,44.1,30.9,25.7,65.2,46.5,102.9,62.4,25.8,10.9,51.6,20.3,77.2,28,6.1,1.9,14.1,4,23.9,6.4,5.3,1.3,10.7,2.7,16,4,6.6,1.7,11.9,2.9,16.1,3.7,22.7,4.4,45.5,6.5,68.6,6.3,5.7,0,14.8-.3,27.5-.8,17.9-.7,32.8-1.9,44.8-3.7,3.8-.6,5.2.4,4.2,3-.4.9-1.1,2-2.3,3-34.3,32.4-71.4,60.6-111.3,84.9-.9.6-2.1.7-3.1.4-38.4-10.6-76.3-22.6-113.8-36.1-7.9-2.8-14.5-1.6-20,3.7-6.2,6.1-12.2,12.3-18,18.8-3.5,3.9-7.4,7.3-11.8,10.2-1.3.8-2.7,1.1-4.2.9-14.9-2-29-6.7-42.1-14-11-6.1-22.3-11.6-33.8-16.4-6.3-2.7-11.1-4.1-14.4-4.3-5.4-.4-10.5.9-15.1,3.9-3.2,2.1-6.8,5.5-10.8,10.1-1.9,2.3-4.5,4.6-7.8,7-3.1,2.3-6.1,4-9,5.1-7.4,2.8-14.6,3-21.5.4-5.2-1.9-10.7-5.9-16.6-11.8-7.3-7.4-12.9-15.6-16.8-24.7-2.9-6.7-5.6-15.1-8.2-25.3-3.6-14.3-10-27.2-19-38.6-4.8-6.1-7.2-9.2-7.3-9.2-3.1-4.1-6.3-8.3-9.4-12.4-2.3-3-4.3-2.8-5.8.7-2.1,5-3.4,10.6-3.7,16.6-.2,4.2.1,9.8,1.1,16.8,1.3,9.9,3.2,19.7,5.5,29.5.5,2,0,2.3-1.5.9-3.8-3.6-7.7-7.4-11.7-11.4-20.4-20.4-33.9-44.7-40.7-72.9-3.1-13-5.4-26.1-6.9-39.3-1.3-11.8-3.9-24.1-7.9-36.8-2.3-7.4-5.7-14-10.2-19.7-4.8-6.2-10.5-10.7-17-13.4-5.3-2.3-10.9-3.4-16.8-3.3-5.1,0-10.6,1.1-16.5,3.1-15.9,5.5-28.4,15.7-37.4,30.5-6,9.9-9.7,15.8-11.3,17.9-1.6,2.2-3.4,2.8-5.4,1.8-1.1-.5-2.1-1.7-3.2-3.6-3.2-5.3-5.6-9.9-7.3-13.7-7.2-16.2-16.2-30.5-27.2-43-.3-.3-.8-.8-1.7-1.5Zm83.2-.5c1.8.5,3,0,3.8-1.4.4-.7.6-1.9.6-3.5.3-23.1,3.1-46.8,8.5-71.1,9.9-45.1,28.3-85.8,55.2-122.2,11.7-15.8,25-30.1,40-42.8,31.8-27.1,67.2-48.2,106.2-63.2,2.6-1,4.8-2.1,6.6-3.2,1.7-1.1,1.6-1.4-.4-.9-5.4,1.3-10.8,3-16,4.9-31.1,11.6-60.7,26.3-88.8,44-31,19.5-59.2,44.3-84.6,74.2-11.8,13.9-21.9,27-30.3,39.4-5.8,8.5-10.3,16.5-13.6,23.9-3.8,8.7-6.8,17.8-9.2,27.4-6.4,26.7-3.4,52,9.2,75.8,2.5,4.7,5.4,9.9,8.7,15.7.9,1.5,2.1,2.5,3.8,3Zm212.6,111.5c13.9,13.7,27.4,25.4,40.5,35.2,35.4,26.3,73.9,47.1,115.3,62.4,31.6,11.7,64.3,18.6,98,20.8,10.4.7,20.9.5,31.3-.5,40.6-3.9,79.8-13.3,117.8-28.1,7.2-2.8,14-6,20.4-9.5,1-.6,1-.7-.2-.5-4.8,1.1-9.5,2.2-14.1,3.3-5.3,1.3-10,2.3-14.2,2.9-27.7,4.3-59.6,7.4-95.6,9.2-34.5,1.7-68.4-1.8-101.7-10.4-22.5-5.9-43.8-12.1-63.6-18.8-16.7-5.6-32.9-12.8-48.4-21.7-7-4-14.8-8.9-23.2-14.8-29.7-20.7-55.9-43.7-78.7-68.9-19.9-22-34.7-47.6-44.4-76.6-.4-1.1-1.3-2-2.4-2.4-1.4-.5-2.2,0-2.5,1.6-.1.6,0,1.5,0,2.6,2.4,16.5,7,31.8,13.8,45.9,8.9,18.3,20.6,35.4,35,51.2,3.5,3.8,9.1,9.6,16.9,17.2Z"/>
  <path class="b" d="m390.7,67.5c0-.4.3-.7.6-.9,5.8-2.6,11.7-4.3,17.7-5.1,3.1-.4,11.7-1.5,25.8-3.2,1.1-.1,1.8,0,2.1.6.2.3,0,.7-.3.9,0,0,0,0-.1,0-8.4,3.2-14.9,6.3-19.5,9.2-9,5.8-18,11.7-26.9,17.7-.6.4-.9.2-.8-.5l1.5-18.7Z"/>
  <path class="b" d="m903.6,438.1c-1,.2-1.4,0-1.4-.8,0-.6,0-1,0-1.1-9.1-62.2-32.3-118.5-69.5-169-18.2-24.6-39-47.5-62.5-68.5-50.9-45.6-109.2-77.3-174.9-95.3-6.3-1.7-12.5-2.4-18.3-2.1-5.2-2.8-8.9-6.6-11.1-11.4-3.4-7.4-7.2-14.5-11.4-21.4-.4-.6-.2-.9.5-.7,4,.7,7.9,1.4,11.9,2,5.6.8,9.6,1.4,11.9,1.9,19.8,3.8,39.1,9.4,57.9,16.8,7.9,3.1,16.4,6.8,25.3,10.8,29.8,13.7,57.8,31,84.2,52.1,15.9,12.8,30.7,25.8,44.2,39.2,6.7,6.7,13,13.4,18.8,20.1,38.3,44.4,65.6,95.4,81.9,153,7.1,25.2,11.3,50.1,12.6,74.7Z"/>
  <path class="d" d="m577,101.2c5.9-.3,12,.4,18.3,2.1,65.7,17.9,123.9,49.7,174.9,95.3,23.5,21,44.3,43.9,62.5,68.5,37.2,50.5,60.4,106.8,69.5,169,0,.1,0,.5,0,1.1,0,.8.4,1,1.4.8,1.7,18.7,1.7,37.4.1,56.1-.8,9.2-1.8,18.3-2.9,27.4-4.1,31.6-12.8,62-26.3,91.2-46.3,15.5-93.3,19.7-141.2,12.5-8.5-1.3-17.4-3.1-26.9-5.4-21.2-5.2-41.9-12-62.2-20.2-23.2-9.4-42.9-18.8-59.1-28-35.9-20.5-66.8-48.3-92.8-83.1-12.8-17.1-23.4-35.5-31.9-55-8.4-19.3-13.9-39-16.6-59.1-1.8-13.6-1.9-27.7-.3-42.2,2.5-7.5,5.8-14.7,9.9-21.5,17.3-29,42.8-45.8,76.6-50.4,12.6-1.7,24.5-.6,35.6,3.2,10.2,3.6,18.3,10.2,24.4,19.9,4.5,7.2,8.9,17.4,13.3,30.5,3.6,10.8,7.7,21.3,12.3,31.6,5.7,12.5,14.1,23.6,25.1,33.3,8.1,7.1,15.8,12,23.1,14.6,10.8,3.9,21.5,3.8,32.1-.5,7.6-3,14.9-8.4,22-16,7.9-8.5,14.1-18.2,18.8-29.2,4.7-10.9,8-22.1,9.9-33.8,5.2-31.1,1.7-60.4-10.5-87.9-3.4-7.6-8.5-16.7-15.5-27.4,28.9,23,54.4,46.9,76.3,71.8,24.8,28.1,45.4,60.2,61.7,96.4,6.7,14.8,12.5,31.1,17.4,48.9,13.4,48.4,12.8,96.3-2.1,143.7-.4,1.4-.6,2.6-.5,3.5,0,.5.2.6.5,0,2.1-3.6,3.8-7,5.1-10.2,10.8-27.5,16.3-56.2,16.3-86.2,0-16.3-.9-30.2-2.8-41.9-5.9-36.2-18.2-70.7-36.7-103.6-4.3-7.7-9.2-15.4-14.6-23.3-24.3-35.5-53.6-66.3-87.7-92.6-9.9-7.6-17.3-13-22.1-16.3-9.9-6.7-20.4-12.3-31.6-16.8-23.3-22.9-50.7-41.8-82.2-56.8-14.3-6.8-27.9-11.5-40.7-14.1Zm141.4,379.7c0-20.7-16.8-37.5-37.5-37.5-20.7,0-37.5,16.8-37.5,37.5h0c0,20.7,16.8,37.5,37.5,37.5,20.7,0,37.5-16.8,37.5-37.5Z"/>
  <path class="b" d="m720.7,198.7c-6.2-9.3-13.1-18.2-20.8-26.5,11.1,4.5,21.7,10.1,31.6,16.8,4.8,3.2,12.2,8.7,22.1,16.3,34.2,26.2,63.4,57.1,87.7,92.6,5.4,7.9,10.3,15.7,14.6,23.3,18.6,32.8,30.8,67.3,36.7,103.6,1.9,11.7,2.9,25.7,2.8,41.9,0,30-5.5,58.7-16.3,86.2-1.2,3.2-2.9,6.5-5.1,10.2-.3.5-.4.4-.5,0-.1-.9,0-2,.5-3.5,14.8-47.3,15.5-95.2,2.1-143.7-4.9-17.8-10.8-34.1-17.4-48.9-16.3-36.2-36.9-68.3-61.7-96.4-22-24.9-47.4-48.8-76.3-71.8Z"/>
  <path class="f" d="m205.9,498.9c-1.7-.5-3-1.5-3.8-3-3.3-5.8-6.2-11-8.7-15.7-12.6-23.8-15.6-49.1-9.2-75.8,2.3-9.6,5.4-18.7,9.2-27.4,3.2-7.4,7.7-15.3,13.6-23.9,8.4-12.4,18.5-25.5,30.3-39.4,25.4-30,53.6-54.7,84.6-74.2,28.1-17.7,57.7-32.3,88.8-44,5.2-2,10.5-3.6,16-4.9,2-.5,2.1-.2.4.9-1.9,1.2-4.1,2.2-6.6,3.2-39,15-74.5,36-106.2,63.2-15,12.8-28.3,27-40,42.8-26.9,36.3-45.3,77-55.2,122.2-5.4,24.3-8.2,48.1-8.5,71.1,0,1.6-.2,2.8-.6,3.5-.8,1.4-2.1,1.9-3.8,1.4Z"/>
  <path class="b" d="m443.6,332.2c-1.6,14.5-1.6,28.6.3,42.2,2.7,20.1,8.2,39.8,16.6,59.1,8.5,19.6,19.1,37.9,31.9,55,26,34.9,57,62.6,92.8,83.1,16.1,9.2,35.8,18.6,59.1,28,20.3,8.2,41,15,62.2,20.2,9.5,2.4,18.5,4.2,26.9,5.4,47.9,7.1,94.9,2.9,141.2-12.5,16.6-4.7,32.4-11.4,47.4-20,4.6-2.7,9.3-5.3,14-8,.8-.5,1.5-1.6,2.1-3.4.2,1.5,1,1.9,2.4,1,8-5,16.4-9.2,25.1-12.6,2.7-1.1,5.1-1.4,7.3-.9,3.8.8,7.2,2.6,10.2,5.5-5.4,4.1-10.8,8.2-16.2,12.3,0,0-4,3.1-11.9,9.1-20.6,15.9-43.2,28.2-67.7,36.8-7.5,2.6-16.3,5.2-26.4,7.6-18.2,4.3-36,7.5-53.4,9.3-16,1.8-32.6,1.6-49.9-.6-26.7-3.3-53.1-8.6-79-15.9-40.6-11.4-78.6-28.4-114-51-39.8-25.5-72.3-57.9-97.4-97.5-5.4-8.5-9.8-16.5-13.4-24-13.3-28.4-19.4-58.2-18.3-89.4.5-12.4,3.1-25.3,8.1-38.9Z"/>
  <circle class="c" cx="680.9" cy="480.9" r="37.5"/>
  <path class="f" d="m418.6,610.4c-7.7-7.6-13.4-13.4-16.9-17.2-14.5-15.8-26.2-32.9-35-51.2-6.8-14.1-11.4-29.4-13.8-45.9-.2-1.1-.2-2,0-2.6.2-1.5,1.1-2.1,2.5-1.6,1.2.4,2.1,1.3,2.4,2.4,9.7,29,24.6,54.5,44.4,76.6,22.7,25.2,49,48.2,78.7,68.9,8.4,5.9,16.1,10.8,23.2,14.8,15.6,8.9,31.7,16.1,48.4,21.7,19.9,6.7,41.1,12.9,63.6,18.8,33.3,8.7,67.2,12.1,101.7,10.4,36-1.8,67.9-4.8,95.6-9.2,4.2-.7,8.9-1.6,14.2-2.9,4.6-1.1,9.3-2.2,14.1-3.3,1.2-.3,1.2-.1.2.5-6.4,3.5-13.2,6.7-20.4,9.5-37.9,14.8-77.2,24.2-117.8,28.1-10.4,1-20.8,1.2-31.3.5-33.7-2.2-66.3-9.1-98-20.8-41.4-15.3-79.8-36.1-115.3-62.4-13.1-9.7-26.6-21.4-40.5-35.2Z"/>
  <path class="b" d="m706.4,811.6c-11.5-4.4-25.8-10.3-42.8-17.7-4.3-1.9-9-3-14.2-3.4-2-.2-3.7.1-5,.9-1.6,1-2.8,2.4-3.5,4.1-.7,1.8-2.2,7-4.5,15.5-1.4,5.3-4.8,9.6-10,13-3.2,2-7.2,3.4-12,4.1-2.8.4-6.2.4-10.1.1-4.1-.3-7.5-.8-10-1.4-9.3-2-19-4.8-29.2-8.4-7.7-2.7-16.3-6-25.7-9.8-8.7-3.5-17.2-7.3-25.6-11.4-3.2-1.5-5.9-2.5-8.3-3-2.2-.4-4.1,0-5.9,1-1,.6-2.3,2-4,4.1-1.8,2.4-4.2,5.4-7.2,9-12,14.6-27,18.7-45.2,12.4-20-7-37.6-15.8-52.5-26.5-17-12.1-33.7-24.4-50.2-37.1-20.6-15.8-36.8-29-48.7-39.6-23.5-21.1-39.8-46.8-49.1-77.1-3.4-11.2-6.3-22.6-8.5-34.2,0,0-.1-.8-.3-2.3-.4-2.9-2-4.1-4.8-3.4-1.7.4-3,1.4-3.9,2.9-6.3,10.8-14.1,20-23.4,27.7-.3.3-.5.7-.5,1.1.9,11.1,3.5,21.7,7.8,32,6.8,16.3,15.6,31.3,26.4,45,4.5,5.8,10.5,12.7,18,20.8,11.3,12.3,23.4,23.8,36.2,34.5,16.6,13.8,34.5,25.6,53.8,35.3.2.1.4.3.6.5.9,1,.6,1.2-1.1.5-8.8-3.6-17.2-7.8-25.4-12.6-18.1-10.6-35.6-22.3-52.3-35.1-24.6-18.7-46.6-40.2-65.7-64.5-6.4-8.1-12.1-16.8-17-26-4.2-7.9-7.1-16.2-8.8-25-.1-.7-.7-1.3-1.4-1.4-6.9-1.3-13.4-3.9-19.4-7.9-7.2-4.8-13.9-11.4-20.1-19.8-8.1-10.9-15-22.5-20.8-34.8-.2-.4-.3-.4-.2,0,.4,2.1.7,4.2,1,6.3.4,2.8.8,5.1,1.3,7,5.1,19.7,13.1,39.4,23.9,59.1,25,45.4,56.2,84.6,93.7,117.6,16.1,14.2,34.2,27.1,54.5,38.9.3.2.6.4.8.6,1.2,1.4,1.1,1.8-.5,1.2-.3-.1-.6-.2-.9-.4-35.2-19.4-67.8-42.4-97.8-69-7.9-7-14.6-13.2-20.2-18.6-28.5-27.5-51.8-59-70-94.4-3.1-6.1-5.6-12.4-7.5-18.9-.1-.5-1-1.9-2.4-4-4.6-14.8-7.9-27.6-9.7-38.2-.8-4.8-1-10-.7-15.8.4-6.1,1.7-10.8,4-14.2,3.9-5.8,9.6-8.1,17.1-6.8,3.3.6,6.8,2.2,10.3,4.8,3.9,2.9,7.2,5.9,10.1,9,7.1,7.8,13.4,16.1,18.9,25.1,7.1,11.5,12.8,20.2,17.2,26.1,1.9,2.5,4.3,5.1,7.4,7.6,3.1,2.6,6.1,4.3,9.1,5,5,1.3,9.7.7,14-1.8,2.8-1.6,5.9-4.7,9.5-9.4,4.7-6.1,8.8-12.6,12.3-19.6,3.1-6.1,5.7-10.8,8-13.9,1.2-1.6,3.1-3.4,5.9-5.4,9.3-6.7,18-7.2,26.1-1.4,3,2.2,5.4,5,7.1,8.6,1.7,3.4,2.8,7,3.5,10.8,2.4,14.3,4.8,28.6,7.1,43,3.9,24.3,11.8,47.1,23.8,68.4,4.4,7.7,9.3,14.6,14.9,20.7,5.4,5.9,11.6,11.8,18.5,17.7,16,13.6,32.7,26.2,50.2,37.8,9,5.9,17.9,11.9,26.9,17.8,9.2,6.1,19,10.9,29.4,14.5,7.8,2.7,16,3.6,24.7,2.8,4.5-.4,8.6-1.6,12.3-3.7,1.4-.8,4.6-3.4,9.7-7.9,4.9-4.4,9.6-7.6,13.8-9.6,2.4-1.2,5.9-1.3,10.2-.5,10.4,1.9,20.4,4.8,30.2,8.7,10.4,4.1,20.7,8.3,31,12.7,5.3,2.3,10.8,4.2,16.4,5.9,5.5,1.6,11,2.2,16.6,1.7,4.8-.4,8.9-1.8,12.3-4.2,3.7-2.5,6.7-5.9,9.1-9.9,1.3-2.3,2.7-4.6,4-6.9,5-8.3,12.3-11.2,22-8.6,4.3,1.1,8.6,2.6,12.7,4.2,4.7,1.9,7.1,2.9,7.1,2.9,17.4,6.7,34.9,12.9,52.6,18.7,2.5.8,4.8,1.9,7,3.2,3,1.9,3.1,3.7.2,5.5-4.5,2.8-9.3,4.9-14.3,6.5Z"/>
  <path class="g" d="m706.4,811.6c-11.4,7.2-23.8,13.6-37.1,19.1-28.5,11.8-57.4,21.5-86.5,29.1-9.4,2.4-18.3,4.5-26.8,6.1-67.6,12.7-134.5,9.8-200.7-8.5-9-2.5-17.7-5.2-26.2-8.3-74.5-26.5-136.3-71.7-185.5-135.7-26.9-35-45.6-73.1-55.9-114.2,1.5,2.2,2.3,3.5,2.4,4,1.9,6.5,4.4,12.8,7.5,18.9,18.2,35.4,41.5,66.9,70,94.4,5.6,5.4,12.4,11.7,20.2,18.6,30,26.6,62.6,49.7,97.8,69,.3.2.7.3.9.4,1.6.6,1.8.2.5-1.2-.2-.2-.5-.5-.8-.6-20.3-11.8-38.5-24.8-54.5-38.9-37.5-33.1-68.8-72.3-93.7-117.6-10.8-19.7-18.8-39.4-23.9-59.1-.5-1.9-.9-4.2-1.3-7-.3-2.1-.7-4.2-1-6.3,0-.4,0-.5.2,0,5.8,12.3,12.8,23.9,20.8,34.8,6.2,8.4,12.9,14.9,20.1,19.8,6.1,4,12.5,6.7,19.4,7.9.7.1,1.3.7,1.4,1.4,1.7,8.8,4.6,17.1,8.8,25,4.9,9.2,10.6,17.8,17,26,19.2,24.3,41.1,45.8,65.7,64.5,16.7,12.7,34.2,24.4,52.3,35.1,8.2,4.8,16.6,9,25.4,12.6,1.7.7,2.1.5,1.1-.5-.2-.2-.4-.3-.6-.5-19.3-9.7-37.2-21.5-53.8-35.3-12.8-10.7-24.9-22.2-36.2-34.5-7.5-8.1-13.4-15-18-20.8-10.8-13.8-19.5-28.8-26.4-45-4.3-10.2-6.9-20.9-7.8-32,0-.4.1-.9.5-1.1,9.3-7.7,17.1-16.9,23.4-27.7.9-1.5,2.2-2.5,3.9-2.9,2.8-.7,4.4.5,4.8,3.4.2,1.4.3,2.2.3,2.3,2.3,11.5,5.1,22.9,8.5,34.2,9.2,30.3,25.6,56,49.1,77.1,11.8,10.6,28,23.8,48.7,39.6,16.5,12.7,33.3,25,50.2,37.1,15,10.6,32.5,19.5,52.5,26.5,18.2,6.4,33.2,2.2,45.2-12.4,3-3.7,5.4-6.7,7.2-9,1.6-2.1,3-3.5,4-4.1,1.8-1.1,3.8-1.4,5.9-1,2.4.4,5.1,1.4,8.3,3,8.4,4.1,16.9,7.9,25.6,11.4,9.4,3.8,18,7.1,25.7,9.8,10.2,3.6,19.9,6.4,29.2,8.4,2.6.6,5.9,1,10,1.4,3.9.3,7.3.3,10.1-.1,4.8-.7,8.8-2.1,12-4.1,5.3-3.3,8.6-7.7,10-13,2.3-8.5,3.8-13.7,4.5-15.5.7-1.8,1.8-3.1,3.5-4.1,1.3-.8,2.9-1.1,5-.9,5.1.4,9.9,1.5,14.2,3.4,17,7.4,31.3,13.2,42.8,17.7Z"/>
</svg>